<svg id="Capa_1" enable-background="new 0 0 512 512" height="512" viewBox="0 0 512 512" width="512" xmlns="http://www.w3.org/2000/svg"><g><path d="m43.735 509.517c5.775 3.566-22.035 2.243 408.265 2.243 33.084 0 60-26.903 60-59.972v-44.979c0-8.28-6.716-14.993-15-14.993h-35v-329.132c0-34.564-28.133-62.684-62.714-62.684h-384.286c-8.284 0-15 6.713-15 14.993v436.795c0 16.019 6.241 31.079 17.572 42.406 7.32 7.317 16.28 12.546 26.163 15.323zm438.265-57.729c0 16.534-13.458 29.986-30 29.986h-340.052c5.118-8.826 8.052-19.071 8.052-29.986v-.769-29.217h362zm-452-421.802h369.286c18.038 0 32.714 14.668 32.714 32.699v329.132h-327c-8.284 0-15 6.713-15 14.993v44.21c0 27.212-32.303 40.876-51.214 21.972-5.666-5.664-8.786-13.195-8.786-21.204z"/><path d="m108.654 120.943h244.691c8.284 0 15-6.713 15-14.993s-6.716-14.993-15-14.993h-244.691c-8.284 0-15 6.713-15 14.993s6.716 14.993 15 14.993z"/><path d="m108.654 190.91h244.691c8.284 0 15-6.713 15-14.993s-6.716-14.993-15-14.993h-244.691c-8.284 0-15 6.713-15 14.993 0 8.281 6.716 14.993 15 14.993z"/><path d="m108.654 260.878h244.691c8.284 0 15-6.713 15-14.993s-6.716-14.993-15-14.993h-244.691c-8.284 0-15 6.713-15 14.993s6.716 14.993 15 14.993z"/><path d="m108.654 330.845h244.691c8.284 0 15-6.713 15-14.993s-6.716-14.993-15-14.993h-244.691c-8.284 0-15 6.713-15 14.993s6.716 14.993 15 14.993z"/></g></svg>