<svg id="Capa_1" enable-background="new 0 0 512 512" height="512" viewBox="0 0 512 512" width="512" xmlns="http://www.w3.org/2000/svg"><g><g><path d="m97.871 185.895h316.259c4.142 0 7.5-3.358 7.5-7.5s-3.358-7.5-7.5-7.5h-316.259c-4.142 0-7.5 3.358-7.5 7.5s3.358 7.5 7.5 7.5z"/><path d="m97.871 253.894h316.259c4.142 0 7.5-3.358 7.5-7.5s-3.358-7.5-7.5-7.5h-316.259c-4.142 0-7.5 3.358-7.5 7.5s3.358 7.5 7.5 7.5z"/><path d="m97.871 321.892h316.259c4.142 0 7.5-3.358 7.5-7.5s-3.358-7.5-7.5-7.5h-316.259c-4.142 0-7.5 3.358-7.5 7.5s3.358 7.5 7.5 7.5z"/><path d="m97.871 389.891h239.915c4.142 0 7.5-3.358 7.5-7.5s-3.358-7.5-7.5-7.5h-239.915c-4.142 0-7.5 3.358-7.5 7.5s3.358 7.5 7.5 7.5z"/><path d="m465.227 87.662-76.264-76.264c-7.35-7.35-17.123-11.398-27.518-11.398h-287.154c-21.458 0-38.916 17.458-38.916 38.917v45.803c0 4.142 3.358 7.5 7.5 7.5s7.5-3.358 7.5-7.5v-45.803c0-13.188 10.729-23.917 23.916-23.917h287.154c1.881 0 3.727.221 5.513.641v74.563c0 10.732 8.731 19.463 19.463 19.463h74.563c.42 1.786.641 3.632.641 5.513v249.764c0 4.142 3.358 7.5 7.5 7.5s7.5-3.358 7.5-7.5v-249.764c0-10.395-4.047-20.168-11.398-27.518zm-78.805 7.005c-2.461 0-4.463-2.002-4.463-4.463v-64.598l69.061 69.061z"/><path d="m469.125 392.473c-4.142 0-7.5 3.358-7.5 7.5v73.111c0 13.188-10.729 23.917-23.917 23.917h-363.417c-13.188 0-23.917-10.729-23.917-23.917v-353.47c0-4.142-3.358-7.5-7.5-7.5s-7.5 3.358-7.5 7.5v353.469c0 21.458 17.458 38.917 38.917 38.917h363.418c21.458 0 38.917-17.458 38.917-38.917v-73.111c-.001-4.141-3.358-7.499-7.501-7.499z"/></g></g></svg>