<svg id="Capa_1" enable-background="new 0 0 512 512" height="512" viewBox="0 0 512 512" width="512" xmlns="http://www.w3.org/2000/svg"><g><g><path d="m367.147 155.526h-300.343c-4.126 0-7.471 3.344-7.471 7.471 0 4.126 3.345 7.471 7.471 7.471h300.343c4.126 0 7.471-3.344 7.471-7.471 0-4.126-3.345-7.471-7.471-7.471z"/><path d="m367.147 208.843h-300.343c-4.126 0-7.471 3.344-7.471 7.471 0 4.126 3.345 7.471 7.471 7.471h300.343c4.126 0 7.471-3.344 7.471-7.471 0-4.126-3.345-7.471-7.471-7.471z"/><path d="m374.618 269.63c0-4.126-3.345-7.471-7.471-7.471h-300.343c-4.126 0-7.471 3.344-7.471 7.471 0 4.126 3.345 7.471 7.471 7.471h300.343c4.126 0 7.471-3.344 7.471-7.471z"/><path d="m281.948 322.947c0-4.126-3.345-7.471-7.471-7.471h-207.673c-4.126 0-7.471 3.344-7.471 7.471s3.345 7.471 7.471 7.471h207.674c4.126 0 7.47-3.344 7.47-7.471z"/><path d="m227.99 376.264c0-4.126-3.345-7.471-7.471-7.471h-153.715c-4.126 0-7.471 3.344-7.471 7.471s3.345 7.471 7.471 7.471h153.715c4.126-.001 7.471-3.345 7.471-7.471z"/><path d="m66.804 422.11c-4.126 0-7.471 3.344-7.471 7.471 0 4.126 3.345 7.471 7.471 7.471h100.67c4.126 0 7.471-3.344 7.471-7.471 0-4.126-3.345-7.471-7.471-7.471z"/><path d="m260.618 496.752 21.34-9.211c3.813-1.645 7.235-3.969 10.172-6.906l197.118-197.118c10.299-10.301 10.302-26.97 0-37.271l-13.989-13.989c-10.275-10.274-26.995-10.274-37.27 0-19.756 19.756-178.082 178.082-197.118 197.118-.003.003-.005.006-.008.009-2.934 2.936-5.255 6.356-6.898 10.163-7.54 17.469-17.133 39.692-23.369 54.14-.474 1.098-.781 2.232-.944 3.372h-156.178c-12.961 0-23.506-10.544-23.506-23.505v-374.217h374.015v132.204c0 4.126 3.345 7.471 7.471 7.471s7.471-3.344 7.471-7.471v-193.094c0-21.2-17.248-38.447-38.447-38.447h-327.004c-21.2 0-38.447 17.247-38.447 38.447v435.106c0 21.199 17.248 38.447 38.447 38.447h327.003c21.2 0 38.447-17.247 38.447-38.447v-84.465c0-4.126-3.345-7.471-7.471-7.471s-7.471 3.344-7.471 7.471v84.465c0 12.961-10.545 23.505-23.506 23.505h-120.568l.688-.297c.007-.002.015-.006.022-.009zm-230.65-458.305c0-12.961 10.545-23.506 23.506-23.506h327.003c12.961 0 23.506 10.545 23.506 23.506v45.947h-374.015zm418.585 204.376c4.448-4.449 11.69-4.451 16.14 0l13.989 13.989c4.45 4.449 4.45 11.69 0 16.139l-16.33 16.33-30.129-30.129zm-26.895 26.895 30.129 30.129-10.771 10.771-30.129-30.129zm-21.337 21.337 30.129 30.129-143.603 143.603-30.129-30.129zm-174.172 204.301 8.019-18.578 10.559 10.559zm33.338-14.39-18.948-18.948 6.757-15.653 27.845 27.845z"/></g></g></svg>